<svg height="512pt" viewBox="-62 0 512 512.01739" width="512pt" xmlns="http://www.w3.org/2000/svg"><path d="m158.886719 344.289062 104.078125 14.300782c7.3125.863281 13.929687 4.734375 18.269531 10.679687 4.339844 5.945313 6.003906 13.433594 4.59375 20.65625l-16.859375 86.777344h13.507812c5.207032 0 10.144532 2.296875 13.5 6.28125 3.351563 3.984375 4.777344 9.242187 3.886719 14.375-1.757812 8.6875-9.496093 14.863281-18.359375 14.652344h-34.867187c-5.253907.003906-10.234375-2.335938-13.582031-6.382813-3.347657-4.050781-4.710938-9.378906-3.722657-14.539062l13.859375-72.914063c.972656-5.171875-.414062-10.503906-3.777344-14.550781-3.359374-4.042969-8.351562-6.378906-13.613281-6.371094h-75.738281zm0 0" fill="#556080"/><path d="m388.40625 123.597656c.027344 40.644532-19.988281 78.691406-53.496094 101.695313-12.511718 8.730469-26.554687 15.019531-41.402344 18.535156-28.414062 6.753906-58.304687 3.253906-84.390624-9.886719-3-1.5-6.003907-3.175781-8.828126-4.941406-50.808593-31.105469-72.195312-94.035156-50.859374-149.660156 21.335937-55.625 79.316406-88.109375 137.894531-77.261719s101.082031 61.945313 101.082031 121.519531zm0 0" fill="#547580"/><path d="m353.09375 105.941406c0 53.628906-43.472656 97.105469-97.101562 97.105469-53.628907 0-97.105469-43.476563-97.105469-97.105469s43.476562-97.101562 97.105469-97.101562c53.628906 0 97.101562 43.472656 97.101562 97.101562zm0 0" fill="#84b5cb"/><path d="m255.992188 66.21875c0 17.0625-13.832032 30.898438-30.898438 30.898438-17.0625 0-30.894531-13.835938-30.894531-30.898438s13.832031-30.894531 30.894531-30.894531c17.066406 0 30.898438 13.832031 30.898438 30.894531zm0 0" fill="#b0d3f0"/><g fill="#8697cb"><path d="m231.273438 233.058594 17.390624 13.066406c-13.777343-1.796875-27.148437-5.914062-39.546874-12.183594 6.257812-5.46875 15.484374-5.835937 22.15625-.882812zm0 0"/><path d="m293.507812 243.828125 5.03125-13.328125-14.210937-28.425781c-4.339844-8.726563-.78125-19.316407 7.945313-23.65625 8.726562-4.339844 19.320312-.78125 23.65625 7.945312l17.65625 35.308594c.609374 1.140625 1.054687 2.359375 1.324218 3.621094-12.511718 8.730469-26.554687 15.019531-41.402344 18.535156zm0 0"/><path d="m334.292969 235.707031-26.484375 70.621094c-1.933594 5.21875-6.222656 9.210937-11.5625 10.769531-1.609375.457032-3.273438.695313-4.945313.707032-3.816406-.007813-7.53125-1.246094-10.589843-3.53125l-27.542969-20.65625c-12.976563 10.242187-25.867188 20.390624-38.84375 30.632812-16.875 12.804688-32.480469 27.203125-46.609375 42.988281-7.433594 7.40625-10.652344 18.054688-8.5625 28.339844l.441406 1.675781 24.363281 90.128906c.546875 1.300782.933594 2.667969 1.148438 4.0625l-22.597657 19.773438-123.144531-30.722656-4.324219 17.214844c-2.117187 9.042968-10.628906 15.09375-19.863281 14.125-4.941406-.707032-9.351562-3.46875-12.144531-7.609376-2.792969-4.136718-3.703125-9.261718-2.507812-14.105468l10.945312-43.960938c1.203125-4.699218 5.976562-7.539062 10.679688-6.359375l91.191406 22.777344c3.398437.851563 6.984375-.394531 9.125-3.167969 2.144531-2.773437 2.441406-6.554687.761718-9.632812-5.386718-9.796875-10.683593-19.597656-16.066406-29.394532-5.648437-9.054687-10.40625-18.632812-14.214844-28.601562-3.121093-12.015625-1.074218-24.789062 5.652344-35.222656 9.621094-16.949219 21.183594-32.664063 31.953125-48.90625 11.300781-16.859375 21.804688-34.25 32.664063-51.375 2.558594-3.882813 5.03125-7.855469 7.503906-11.742188 6.613281-9.824218 17.726562-15.660156 29.570312-15.535156 2.824219 1.765625 5.828126 3.441406 8.828126 4.941406 12.398437 6.269532 25.769531 10.386719 39.546874 12.183594l34.339844 25.777344 10.503906-28.074219c14.847657-3.515625 28.890626-9.804687 41.402344-18.535156.902344 3.449219.6875 7.097656-.617187 10.414062zm0 0"/><path d="m185.460938 494.621094c-.007813.832031-.09375 1.660156-.265626 2.472656-.089843.351562-.175781.882812-.355468 1.414062v.175782c-.058594.273437-.148438.539062-.261719.792968-.167969.542969-.375 1.074219-.621094 1.589844-.238281.671875-.535156 1.320313-.878906 1.941406-.089844.175782-.265625.351563-.355469.53125-.417968.710938-.890625 1.386719-1.410156 2.027344-.386719.492188-.800781.964844-1.238281 1.414063-.351563.265625-.707031.617187-1.058594.882812-.765625.667969-1.59375 1.257813-2.472656 1.765625-.382813.257813-.796875.464844-1.234375.617188-.1875.152344-.394532.269531-.617188.355468-.164062.097657-.34375.15625-.53125.175782-.78125.367187-1.613281.605468-2.472656.707031-.386719.179687-.808594.269531-1.234375.261719-.902344.179687-1.816406.269531-2.738281.265625-1.425782 0-2.851563-.179688-4.234375-.527344l-.972657-.265625 22.597657-19.773438c.207031 1.046876.324219 2.109376.355469 3.175782zm0 0"/></g></svg>