<?xml version="1.0" encoding="utf-8"?>
<!-- Generator: Adobe Illustrator 25.2.0, SVG Export Plug-In . SVG Version: 6.00 Build 0)  -->
<svg version="1.1"
	 id="svg870" xmlns:cc="http://creativecommons.org/ns#" xmlns:dc="http://purl.org/dc/elements/1.1/" xmlns:inkscape="http://www.inkscape.org/namespaces/inkscape" xmlns:rdf="http://www.w3.org/1999/02/22-rdf-syntax-ns#" xmlns:sodipodi="http://sodipodi.sourceforge.net/DTD/sodipodi-0.dtd" xmlns:svg="http://www.w3.org/2000/svg"
	 xmlns="http://www.w3.org/2000/svg" xmlns:xlink="http://www.w3.org/1999/xlink" x="0px" y="0px" viewBox="0 0 512 512"
	 style="enable-background:new 0 0 512 512;" xml:space="preserve">
<style type="text/css">
	.st0{fill:#A0ECFF;}
	.st1{fill:#7D7D7D;fill-opacity:0.2379;}
	.st2{opacity:0.9981;fill:#00AAD4;enable-background:new    ;}
	.st3{opacity:0.9981;fill:#A3A3A3;fill-opacity:0.5927;enable-background:new    ;}
	.st4{opacity:0.9981;fill:#87DEAA;enable-background:new    ;}
	.st5{opacity:0.9981;fill:#FFDD55;enable-background:new    ;}
	.st6{opacity:0.9981;fill:#E09898;enable-background:new    ;}
	.st7{opacity:0.9981;fill:#FFAAAA;enable-background:new    ;}
	.st8{opacity:0.9981;fill:#71D498;enable-background:new    ;}
	.st9{opacity:0.9981;fill:#F9E07B;enable-background:new    ;}
	.st10{opacity:0.9981;fill:#FFE990;enable-background:new    ;}
	.st11{opacity:0.9981;fill:#FFCCAA;enable-background:new    ;}
	.st12{opacity:0.9981;fill:#F3C09E;enable-background:new    ;}
</style>
<defs>
	<inkscape:path-effect  effect="spiro" id="path-effect1253" is_visible="true" lpeversion="1"></inkscape:path-effect>
	<inkscape:path-effect  effect="spiro" id="path-effect1082" is_visible="true" lpeversion="1"></inkscape:path-effect>
	<inkscape:path-effect  effect="spiro" id="path-effect1010" is_visible="true" lpeversion="1"></inkscape:path-effect>
	<inkscape:path-effect  effect="spiro" id="path-effect1006" is_visible="true" lpeversion="1"></inkscape:path-effect>
	<inkscape:path-effect  effect="spiro" id="path-effect1002" is_visible="true" lpeversion="1"></inkscape:path-effect>
	<inkscape:path-effect  effect="spiro" id="path-effect998" is_visible="true" lpeversion="1"></inkscape:path-effect>
	<inkscape:path-effect  effect="spiro" id="path-effect994" is_visible="true" lpeversion="1"></inkscape:path-effect>
	<inkscape:path-effect  effect="spiro" id="path-effect990" is_visible="true" lpeversion="1"></inkscape:path-effect>
	<inkscape:path-effect  effect="spiro" id="path-effect982" is_visible="true" lpeversion="1"></inkscape:path-effect>
</defs>
<sodipodi:namedview  bordercolor="#666666" borderopacity="1.0" id="base" inkscape:current-layer="layer1" inkscape:cx="16.447366" inkscape:cy="11.870486" inkscape:document-rotation="0" inkscape:document-units="mm" inkscape:pageopacity="0.0" inkscape:pageshadow="2" inkscape:window-height="664" inkscape:window-maximized="0" inkscape:window-width="1137" inkscape:window-x="188" inkscape:window-y="70" inkscape:zoom="14.15" pagecolor="#ffffff" showgrid="false" units="px">
	</sodipodi:namedview>
<g id="layer1" inkscape:groupmode="layer" inkscape:label="Layer 1">
	<g id="g908" transform="matrix(0.01498617,0,0,0.01498617,0.11655693,0.15294148)">
		<circle id="circle838" class="st0" cx="17074.8" cy="17072.4" r="16515.4"/>
		<g id="g850">
		</g>
		<g id="g852">
		</g>
		<g id="g854">
		</g>
		<g id="g856">
		</g>
		<g id="g858">
		</g>
		<g id="g860">
		</g>
		<g id="g862">
		</g>
		<g id="g864">
		</g>
		<g id="g866">
		</g>
		<g id="g868">
		</g>
		<g id="g870">
		</g>
		<g id="g872">
		</g>
		<g id="g874">
		</g>
		<g id="g876">
		</g>
		<g id="g878">
		</g>
	</g>
	<path id="path1372" class="st1" d="M55.2,399.9c0.3,0.4,0.6,0.8,0.9,1.2c1.1,1.5,2.1,2.9,3.2,4.4c1.1,1.5,2.2,2.9,3.3,4.3
		c1.1,1.4,2.3,2.9,3.4,4.3c1.2,1.4,2.3,2.8,3.5,4.2c1.2,1.4,2.4,2.7,3.6,4.1c1.2,1.4,2.5,2.7,3.7,4c1.3,1.3,2.5,2.6,3.8,3.9
		c1.3,1.3,2.6,2.6,3.9,3.9c1.3,1.3,2.6,2.5,3.9,3.8c1.3,1.2,2.7,2.5,4.1,3.7c1.4,1.2,2.7,2.4,4.1,3.6c1.4,1.2,2.8,2.3,4.2,3.5
		c1.4,1.1,2.8,2.3,4.3,3.4c1.4,1.1,2.9,2.2,4.3,3.3c1.5,1.1,2.9,2.1,4.4,3.2c1.5,1.1,3,2.1,4.5,3.1c1.5,1,3,2,4.5,3
		c1.5,1,3.1,2,4.6,2.9c1.5,1,3.1,1.9,4.7,2.8c1.6,0.9,3.2,1.8,4.8,2.7c0.5,0.2,0.9,0.5,1.4,0.7l281-117.8L94.5,384.8L55.2,399.9z"/>
	
		<polygon id="rect1012-0-0-2" inkscape:transform-center-x="-3.9017883" inkscape:transform-center-y="0.95642876" class="st2" points="
		94.4,384.7 178.8,354.7 419.3,356.3 334.9,386.4 	">
	</polygon>
	<polygon id="rect1012-2-5-2" class="st3" points="107.5,379.9 181.7,354.4 411.7,355.9 337.5,381.4 	"/>
	
		<polygon id="rect1012-0-0" inkscape:transform-center-x="-3.9017875" inkscape:transform-center-y="0.95642967" class="st4" points="
		93.2,375.5 177.6,345.4 418,347 333.7,377.1 	">
	</polygon>
	<polygon id="rect1012-2-5" class="st3" points="104.5,371.8 179.5,344.8 412.2,346.4 337.2,373.3 	"/>
	<polygon id="rect1012-0" inkscape:transform-center-x="-3.9017841" inkscape:transform-center-y="0.95643042" class="st5" points="
		97.5,366.4 181.8,336.3 422.3,337.9 337.9,368 	">
	</polygon>
	<polygon id="rect1012-2" class="st3" points="107.5,362.5 183.3,336.3 418.3,337.8 342.6,364 	"/>
	<path id="rect1012" class="st6" d="M371.4,328.4l-180-1.2c-2.4,0-6.1,0.6-8.3,1.4l-76.3,27.2c-2.2,0.8-2.1,1.5,0.3,1.5l195.4,1.3
		L371.4,328.4z"/>
	<path id="path1200" class="st7" d="M371.4,328.4l-69,30.2l36.5,0.2c2.4,0,6.1-0.6,8.4-1.4l76.3-27.2c2.2-0.8,2.1-1.5-0.3-1.5
		L371.4,328.4z"/>
	<path id="rect1012-4" class="st8" d="M236.4,312.2l-48.9,5.2c-2.4,0.3-6,1.3-8.1,2.3l-72.7,35.6c-2.1,1-2,1.7,0.4,1.4l59.7-6.4
		L236.4,312.2z"/>
	<path id="path1248" class="st4" d="M236.4,312.2l-69.7,38.3l170.9-18.3c2.4-0.3,6-1.3,8.1-2.4l72.7-35.6c2.1-1,1.9-1.7-0.4-1.4
		L236.4,312.2z"/>
	<path id="rect1012-4-7" class="st9" d="M151.5,165l70.4-61.7l-41.4,16.8c-2.2,0.9-5.4,2.9-7.2,4.5l-60.1,54.3
		c-1.8,1.6-1.4,2.1,0.8,1.2L151.5,165z"/>
	<path id="path1353" class="st10" d="M395.3,32.7l-173.4,70.5L151.5,165l177.4-72.1c2.2-0.9,5.4-2.9,7.2-4.5L396.1,34
		C397.9,32.4,397.5,31.8,395.3,32.7z"/>
	<path id="rect1012-4-7-8" class="st11" d="M337.2,252.1l-86-2.8l74.2,31.1c2.2,0.9,5.9,1.7,8.3,1.8l80.9,3.9
		c2.4,0.1,2.5-0.5,0.3-1.5L337.2,252.1z"/>
	<path id="path1264" class="st12" d="M111.8,189.4c-2.4-0.1-2.5,0.5-0.3,1.4l139.7,58.5l86,2.8l-136.3-57c-2.2-0.9-5.9-1.8-8.2-1.9
		L111.8,189.4z"/>
	<path id="rect1012-4-3" inkscape:connector-curvature="0" class="st8" d="M290.7,305.6l-48.9,5.2c-2.4,0.3-6,1.3-8.1,2.3
		l-72.7,35.6c-2.1,1-2,1.7,0.4,1.4l59.7-6.4L290.7,305.6z"/>
	<path id="rect1012-4-3-1" inkscape:connector-curvature="0" class="st8" d="M343.8,300.4l-48.9,5.2c-2.4,0.3-6,1.3-8.1,2.3
		L214,343.6c-2.1,1-2,1.7,0.4,1.4l59.7-6.4L343.8,300.4z"/>
</g>
</svg>
