<?xml version="1.0" encoding="utf-8"?>
<!-- Generator: Adobe Illustrator 25.1.0, SVG Export Plug-In . SVG Version: 6.00 Build 0)  -->
<svg version="1.1"
	 id="Layer_1" xmlns:cc="http://creativecommons.org/ns#" xmlns:dc="http://purl.org/dc/elements/1.1/" xmlns:inkscape="http://www.inkscape.org/namespaces/inkscape" xmlns:rdf="http://www.w3.org/1999/02/22-rdf-syntax-ns#" xmlns:sodipodi="http://sodipodi.sourceforge.net/DTD/sodipodi-0.dtd" xmlns:svg="http://www.w3.org/2000/svg"
	 xmlns="http://www.w3.org/2000/svg" xmlns:xlink="http://www.w3.org/1999/xlink" x="0px" y="0px" viewBox="0 0 300 300"
	 style="enable-background:new 0 0 300 300;" xml:space="preserve">
<style type="text/css">
	.st0{fill:#90DFFF;}
	.st1{fill:#000080;fill-opacity:0.8105;}
	.st2{opacity:0.6;fill:#FFFFFF;enable-background:new    ;}
	.st3{fill:#FFFF80;}
	.st4{opacity:0.6;}
	.st5{fill:#FFFFFF;}
	.st6{fill:#4589FF;}
	.st7{fill:#0B4FC4;}
	.st8{fill:#FFC4DB;}
	.st9{fill:#FF7AAF;}
</style>
<sodipodi:namedview  bordercolor="#666666" borderopacity="1" gridtolerance="10" guidetolerance="10" id="namedview1035" inkscape:current-layer="Layer_1" inkscape:cx="174.56952" inkscape:cy="549.89558" inkscape:document-rotation="0" inkscape:pageopacity="0" inkscape:pageshadow="2" inkscape:window-height="755" inkscape:window-maximized="0" inkscape:window-width="1318" inkscape:window-x="78" inkscape:window-y="23" inkscape:zoom="1.2646927" objecttolerance="10" pagecolor="#ffffff" showgrid="false" showguides="false">
	</sodipodi:namedview>
<g id="g1615" transform="matrix(0.38808222,0,0,0.38808222,27.764457,274.49966)">
</g>
<path id="path1192" inkscape:connector-curvature="0" class="st0" d="M149.1,5C69.5,5.5,5.1,70.3,5.1,150
	c0,79.2,63.5,143.7,142.6,145L149.1,5z"/>
<path id="path938" inkscape:connector-curvature="0" class="st1" d="M149.1,5l-1.4,290c0.8,0,1.5,0,2.3,0c80,0,144.9-64.9,144.9-145
	c0,0,0,0,0,0C294.9,69.9,230.1,5,150,5c0,0,0,0,0,0C149.7,5,149.4,5,149.1,5L149.1,5z"/>
<path id="path949-7" inkscape:connector-curvature="0" class="st2" d="M123.3,204.9c-1.4,0-2.8,0.2-4.2,0.5
	c-2.8-5.2-8.3-8.7-14.7-8.7c-4.2,0-8.1,1.6-11,4.2c-2.9-2.6-6.8-4.2-11-4.2c-7.3,0-13.4,4.6-15.7,11.1c-2.8-2-6.2-3.3-9.9-3.3
	c-9.2,0-16.7,7.5-16.7,16.7c0,7.7,5.2,14.2,12.3,16.1c1.9,7.1,8.4,12.3,16.1,12.3c3.5,0,6.7-1.1,9.4-2.9c3,3.1,7.3,5,11.9,5
	c6.6,0,12.3-3.9,15-9.4c2.5,1.5,5.4,2.3,8.5,2.3c5.5,0,10.4-2.7,13.4-6.8c7.6-1.6,13.3-8.3,13.3-16.4
	C140,212.4,132.5,204.9,123.3,204.9L123.3,204.9z"/>
<path id="path1028-8-1" inkscape:flatsided="false" inkscape:randomized="0" inkscape:rounded="0.242797" inkscape:transform-center-x="-0.16328103" inkscape:transform-center-y="-0.2128617" sodipodi:arg1="2.158799" sodipodi:arg2="-3.7322343" sodipodi:cx="193.88254" sodipodi:cy="155.24787" sodipodi:r1="5.7138157" sodipodi:r2="2.7157116" sodipodi:sides="7" sodipodi:type="star" class="st3" d="
	M190.7,160c-0.7-0.4,1.3-2.5,0.9-3.2c-0.4-0.7-3.3-0.2-3.4-1c-0.1-0.8,2.8-0.5,3.1-1.3c0.3-0.8-1.9-2.7-1.3-3.3
	c0.6-0.6,2.2,1.9,3,1.6c0.8-0.3,0.9-3.2,1.8-3.1c0.8,0.1-0.1,2.9,0.6,3.3c0.7,0.5,3.1-1.3,3.5-0.6c0.5,0.7-2.3,1.7-2.2,2.5
	c0.1,0.9,2.9,1.6,2.7,2.4c-0.2,0.8-2.8-0.7-3.4-0.2c-0.6,0.6,0.6,3.3-0.2,3.6c-0.8,0.3-1.2-2.6-2-2.7
	C192.8,157.8,191.5,160.4,190.7,160z"/>
<g id="g1011" transform="matrix(0.42649806,0,0,0.42649806,-65.256351,5.1515342)">
	<g id="g947" class="st4">
		<path id="path1530" inkscape:connector-curvature="0" class="st5" d="M214.6,162.9c-0.1,0.2-0.2,0.4-0.3,0.6
			c-0.4,0.7-0.8,1.4-1.2,2c-0.4,0.7-0.8,1.4-1.2,2c-0.4,0.7-0.8,1.4-1.2,2.1c-0.4,0.7-0.8,1.4-1.2,2.1c-0.4,0.7-0.8,1.4-1.2,2.1
			c-0.4,0.7-0.8,1.4-1.1,2.1c-0.4,0.7-0.8,1.4-1.1,2.1c-0.4,0.7-0.8,1.4-1.1,2.1c-0.4,0.7-0.7,1.4-1.1,2.1c-0.4,0.7-0.7,1.4-1.1,2.1
			c-0.4,0.7-0.7,1.4-1.1,2.1c-0.4,0.7-0.7,1.4-1.1,2.1c-0.4,0.7-0.7,1.4-1,2.1c-0.3,0.7-0.7,1.4-1,2.1c-0.3,0.7-0.7,1.4-1,2.1
			c-0.3,0.7-0.7,1.4-1,2.2c-0.3,0.7-0.7,1.4-1,2.2c-0.3,0.7-0.7,1.4-1,2.2c-0.3,0.7-0.6,1.4-1,2.2c-0.3,0.7-0.6,1.5-0.9,2.2
			c-0.3,0.7-0.6,1.5-0.9,2.2c-0.3,0.7-0.6,1.5-0.9,2.2c-0.3,0.7-0.6,1.5-0.9,2.2c-0.3,0.7-0.6,1.5-0.9,2.2c-0.3,0.7-0.6,1.5-0.9,2.2
			c-0.3,0.7-0.6,1.5-0.9,2.2c-0.3,0.7-0.6,1.5-0.8,2.2c-0.3,0.7-0.5,1.5-0.8,2.2c-0.3,0.7-0.5,1.5-0.8,2.2c-0.3,0.7-0.5,1.5-0.8,2.2
			c-0.3,0.7-0.5,1.5-0.8,2.2c-0.3,0.8-0.5,1.5-0.8,2.3c-0.2,0.8-0.5,1.5-0.7,2.3c-0.2,0.8-0.5,1.5-0.7,2.3c-0.2,0.8-0.5,1.5-0.7,2.3
			c-0.2,0.8-0.5,1.5-0.7,2.3c-0.2,0.8-0.5,1.5-0.7,2.3c-0.2,0.8-0.4,1.5-0.7,2.3c-0.2,0.8-0.4,1.5-0.6,2.3c-0.2,0.8-0.4,1.5-0.6,2.3
			c-0.2,0.8-0.4,1.5-0.6,2.3c-0.2,0.8-0.4,1.5-0.6,2.3c-0.2,0.8-0.4,1.5-0.6,2.3c-0.2,0.8-0.4,1.5-0.6,2.3c-0.2,0.8-0.4,1.5-0.5,2.3
			c-0.2,0.8-0.4,1.5-0.5,2.3c-0.2,0.8-0.3,1.5-0.5,2.3c-0.2,0.8-0.3,1.5-0.5,2.3c-0.2,0.8-0.3,1.5-0.5,2.3c-0.2,0.8-0.3,1.6-0.5,2.3
			c-0.2,0.8-0.3,1.6-0.5,2.3c-0.1,0.8-0.3,1.6-0.4,2.3c-0.1,0.8-0.3,1.6-0.4,2.3c-0.1,0.8-0.3,1.6-0.4,2.3c-0.1,0.8-0.3,1.6-0.4,2.3
			c-0.1,0.8-0.3,1.6-0.4,2.3c-0.1,0.8-0.2,1.6-0.4,2.3c-0.1,0.8-0.2,1.6-0.3,2.3c-0.1,0.8-0.2,1.6-0.3,2.4c-0.1,0.8-0.2,1.6-0.3,2.4
			c-0.1,0.8-0.2,1.6-0.3,2.4c-0.1,0.8-0.2,1.6-0.3,2.4c-0.1,0.8-0.2,1.6-0.3,2.4c-0.1,0.8-0.2,1.6-0.2,2.4c-0.1,0.8-0.2,1.6-0.2,2.4
			c-0.1,0.8-0.1,1.6-0.2,2.4c-0.1,0.8-0.1,1.6-0.2,2.4c0,0.5-0.1,1-0.1,1.5c2.6-1.2,5.4-2.1,7.7-3.8c9.5,9.7,22.6,15.7,37.2,15.7
			c20.6,0,38.3-12,46.8-29.3c7.7,4.5,16.7,7.2,26.3,7.2c17.1,0,32.3-8.3,41.7-21.1c23.6-4.9,41.3-25.9,41.3-50.9
			c0-28.8-23.3-52.1-52.1-52.1c-4.5,0-8.8,0.6-13,1.7c-8.8-16.2-26-27.2-45.7-27.2c-13.2,0-25.2,4.9-34.3,13
			C219.6,166.4,217.2,164.5,214.6,162.9z"/>
	</g>
	<g id="g951" class="st4">
		<path id="path949" inkscape:connector-curvature="0" class="st5" d="M383.9,253.5c-3.4,0-6.6,0.5-9.8,1.3
			c-6.6-12.2-19.6-20.5-34.4-20.5c-9.9,0-19,3.7-25.9,9.8c-6.9-6.1-15.9-9.8-25.9-9.8c-17,0-31.4,10.8-36.9,26
			c-6.5-4.8-14.5-7.6-23.2-7.6c-21.6,0-39.2,17.5-39.2,39.2c0,18.1,12.3,33.3,28.9,37.8c4.5,16.7,19.7,28.9,37.8,28.9
			c8.2,0,15.8-2.5,22-6.8c7.1,7.3,17,11.8,28,11.8c15.5,0,28.9-9,35.2-22.1c5.8,3.4,12.6,5.4,19.8,5.4c12.9,0,24.3-6.2,31.4-15.9
			c17.8-3.7,31.1-19.5,31.1-38.4C423.1,271,405.5,253.5,383.9,253.5L383.9,253.5z"/>
	</g>
	<g id="g953">
	</g>
	<g id="g955">
	</g>
	<g id="g957">
	</g>
	<g id="g959">
	</g>
	<g id="g961">
	</g>
	<g id="g963">
	</g>
	<g id="g965">
	</g>
	<g id="g967">
	</g>
	<g id="g969">
	</g>
	<g id="g971">
	</g>
	<g id="g973">
	</g>
	<g id="g975">
	</g>
	<g id="g977">
	</g>
	<g id="g979">
	</g>
	<g id="g981">
	</g>
</g>
<path id="path1028" inkscape:flatsided="false" inkscape:randomized="0" inkscape:rounded="0.242797" inkscape:transform-center-x="-0.22415491" inkscape:transform-center-y="-0.2922223" sodipodi:arg1="2.158799" sodipodi:arg2="-3.7322343" sodipodi:cx="236.77856" sodipodi:cy="104.96247" sodipodi:r1="7.8440714" sodipodi:r2="3.7281973" sodipodi:sides="7" sodipodi:type="star" class="st3" d="
	M232.4,111.5c-1-0.6,1.8-3.5,1.3-4.5c-0.6-1-4.6-0.2-4.7-1.4c-0.2-1.1,3.9-0.7,4.3-1.8c0.4-1.1-2.7-3.7-1.8-4.6
	c0.8-0.8,3,2.6,4.1,2.2c1.1-0.4,1.2-4.4,2.4-4.3c1.1,0.1-0.1,3.9,0.8,4.6c1,0.7,4.2-1.8,4.9-0.8c0.6,0.9-3.2,2.3-3.1,3.5
	c0.1,1.2,4,2.2,3.6,3.3c-0.3,1.1-3.8-1-4.6-0.2c-0.9,0.8,0.8,4.5-0.3,4.9c-1,0.4-1.6-3.6-2.7-3.8
	C235.3,108.5,233.5,112.1,232.4,111.5z"/>
<path id="path1028-3" inkscape:flatsided="false" inkscape:randomized="0" inkscape:rounded="0.242797" inkscape:transform-center-x="-0.20291032" inkscape:transform-center-y="-0.26453037" sodipodi:arg1="2.158799" sodipodi:arg2="-3.7322343" sodipodi:cx="209.26992" sodipodi:cy="204.67604" sodipodi:r1="7.1008487" sodipodi:r2="3.3749523" sodipodi:sides="7" sodipodi:type="star" class="st3" d="
	M205.3,210.6c-0.9-0.5,1.7-3.2,1.1-4c-0.6-0.9-4.1-0.2-4.3-1.3c-0.1-1,3.5-0.7,3.9-1.6c0.4-1-2.4-3.3-1.7-4.1c0.7-0.7,2.7,2.3,3.7,2
	c1-0.3,1.1-4,2.2-3.9c1,0.1-0.1,3.6,0.7,4.1c0.9,0.6,3.8-1.6,4.4-0.7c0.6,0.8-2.9,2.1-2.8,3.1c0.1,1.1,3.6,2,3.3,3
	c-0.3,1-3.4-0.9-4.2-0.2c-0.8,0.7,0.7,4.1-0.3,4.4c-0.9,0.4-1.4-3.3-2.4-3.4C207.9,207.9,206.3,211.1,205.3,210.6L205.3,210.6z"/>
<path id="path1028-7" inkscape:flatsided="false" inkscape:randomized="0" inkscape:rounded="0.242797" inkscape:transform-center-x="-0.17228018" inkscape:transform-center-y="-0.2246095" sodipodi:arg1="2.158799" sodipodi:arg2="-3.7322343" sodipodi:cx="194.56166" sodipodi:cy="46.015184" sodipodi:r1="6.0290937" sodipodi:r2="2.8655593" sodipodi:sides="7" sodipodi:type="star" class="st3" d="
	M191.2,51c-0.7-0.4,1.4-2.7,1-3.4c-0.5-0.8-3.5-0.2-3.6-1.1c-0.1-0.9,3-0.6,3.3-1.4c0.3-0.9-2-2.8-1.4-3.5c0.6-0.6,2.3,2,3.1,1.7
	c0.9-0.3,0.9-3.4,1.9-3.3c0.9,0.1-0.1,3,0.6,3.5c0.8,0.5,3.2-1.4,3.7-0.6c0.5,0.7-2.4,1.8-2.4,2.7c0.1,0.9,3.1,1.7,2.8,2.5
	c-0.3,0.8-2.9-0.8-3.5-0.2c-0.7,0.6,0.6,3.4-0.2,3.8c-0.8,0.3-1.2-2.8-2.1-2.9C193.4,48.7,192,51.5,191.2,51z"/>
<path id="path1028-8" inkscape:flatsided="false" inkscape:randomized="0" inkscape:rounded="0.242797" inkscape:transform-center-x="-0.26475309" inkscape:transform-center-y="-0.34512367" sodipodi:arg1="2.158799" sodipodi:arg2="-3.7322343" sodipodi:cx="198.47812" sodipodi:cy="257.25159" sodipodi:r1="9.2642412" sodipodi:r2="4.4031882" sodipodi:sides="7" sodipodi:type="star" class="st3" d="
	M193.3,265c-1.1-0.7,2.2-4.1,1.5-5.3c-0.7-1.2-5.4-0.3-5.6-1.7c-0.2-1.3,4.6-0.9,5-2.1c0.5-1.3-3.1-4.4-2.2-5.4c0.9-1,3.5,3,4.8,2.6
	c1.3-0.4,1.5-5.2,2.9-5.1c1.3,0.1-0.2,4.6,0.9,5.4c1.2,0.8,5-2.1,5.7-0.9c0.7,1.1-3.7,2.8-3.6,4.1c0.1,1.4,4.7,2.6,4.3,3.9
	c-0.4,1.3-4.5-1.2-5.5-0.3c-1,1,0.9,5.3-0.4,5.8c-1.2,0.5-1.9-4.3-3.2-4.4C196.7,261.4,194.6,265.7,193.3,265L193.3,265z"/>
<path id="path1028-3-4" inkscape:flatsided="false" inkscape:randomized="0" inkscape:rounded="0.242797" inkscape:transform-center-x="-0.23335083" inkscape:transform-center-y="-0.30420747" sodipodi:arg1="2.158799" sodipodi:arg2="-3.7322343" sodipodi:cx="248.36457" sodipodi:cy="174.37769" sodipodi:r1="8.1659765" sodipodi:r2="3.8811953" sodipodi:sides="7" sodipodi:type="star" class="st3" d="
	M243.8,181.2c-1-0.6,1.9-3.6,1.3-4.6c-0.6-1.1-4.7-0.2-4.9-1.5c-0.2-1.2,4-0.8,4.4-1.9c0.4-1.2-2.8-3.8-1.9-4.8
	c0.8-0.9,3.1,2.7,4.2,2.3c1.2-0.4,1.3-4.6,2.5-4.5c1.2,0.1-0.1,4.1,0.8,4.7c1,0.7,4.4-1.8,5.1-0.8c0.7,1-3.3,2.4-3.2,3.6
	c0.1,1.2,4.2,2.3,3.8,3.5c-0.4,1.1-4-1-4.8-0.2c-0.9,0.9,0.8,4.7-0.3,5.1c-1.1,0.4-1.7-3.7-2.8-3.9
	C246.8,178.1,244.9,181.8,243.8,181.2z"/>
<g id="g1539" transform="matrix(0.76833386,-0.43616405,0.49960615,0.88009156,-131.36421,124.24604)">
</g>
<g id="g2289" transform="matrix(0.01149734,0,0,0.01149734,1.6570785,2.20293)">
	
		<image style="overflow:visible;opacity:0.59;" width="299" height="293" xlink:href="654F29F67172C795.png"  transform="matrix(86.9792 0 0 86.9792 -231.1106 -278.5883)">
	</image>
	<g>
		<g>
			<path id="path2166_12_" inkscape:connector-curvature="0" class="st6" d="M18697.6,14269.5c100.1,290.2,153.7,601.5,153.7,925.1
				c0,1574.6-1276.4,2851.2-2850.9,2851.2c-108.7,0-216-6.3-322.4-19.1c-140.3,811.6-847,1429.5-1698.8,1429.5h-13.4
				c-647.7-4.8-1167-539-1167-1186.7V6991c0-230.3,87.3-453.2,244.9-620.3c484.7-513.6,1171.2-834.5,1932.1-834.5
				c1342.2,0,2451.7,995.4,2630.5,2288.4c1417.6,555.6,2422.2,1936.3,2422.2,3551.4
				C20028.8,12533.7,19512.5,13570.6,18697.6,14269.5z"/>
			<path id="path2168_12_" inkscape:connector-curvature="0" class="st7" d="M15679.3,18618.5c-30.4,0-61.4-2.4-92.4-7.5
				c-669.2-104.9-1291-413.2-1797.4-892c-237.5-224-247.9-598.3-23.8-835.4c224.3-237.5,598.3-247.9,835.4-23.8
				c332.5,314,736.5,515.7,1169.1,583.7c322.4,50.7,542.8,352.8,492.2,675.4C16216.7,18410.2,15965.3,18618.5,15679.3,18618.5z"/>
			<path id="path2170_12_" inkscape:connector-curvature="0" class="st7" d="M15473.4,9684.3c-116.8,127.5-276.8,192.2-435.9,192.2
				c-143.3,0-286-51.2-399.5-155.2c-447.5-410.6-1048.1-596.5-1646.1-510.7c-66.1,9.5-131.7,7.2-193.1-3.9V8045.1
				c7.7-2.4,16.4-3,25.3-4.8c950.1-136.2,1902,158.5,2612,809.5C15677.5,9070.3,15693.3,9443.9,15473.4,9684.3z"/>
			<path id="path2172_12_" inkscape:connector-curvature="0" sodipodi:nodetypes="scscscsscscscs" class="st8" d="M12798.8,6991
				v5639.3v5639.3c0,647.7-519.3,1181.9-1167,1186.7h-14.3c-851.8,0-1558.5-617.9-1698.8-1429.5c-105.5,12.8-213.6,19.1-322.4,19.1
				c-1574.6,0-2850.9-1276.7-2850.9-2851.2c0-323.6,54.2-634.9,153.7-925.1c-814-699-1330.3-1735.8-1330.3-2893.5
				c0-1615.4,1004-2996,2422.2-3551.4c179.1-1293,1287.7-2288.4,2629.6-2288.4c762.1,0,1448.6,320.9,1932.4,834.5
				C12711.2,6537.8,12798.8,6760.7,12798.8,6991z"/>
			<path id="path2174_12_" inkscape:connector-curvature="0" class="st9" d="M9918.1,18618.5c-286,0-537.5-208.3-583.4-499.6
				c-50.3-322.4,170.1-624.8,492.5-675.4c432.3-67.6,836.6-269.6,1168.8-583.7c237.2-224,611.4-213.3,835.4,23.8
				c224.3,237.2,213.6,611.4-23.5,835.4c-506.8,478.8-1128.3,787.1-1797.7,892.3C9979.2,18616.1,9948.5,18618.5,9918.1,18618.5z"/>
			<path id="path2176_12_" inkscape:connector-curvature="0" class="st9" d="M12798.8,8045.1v1161.6c-61.4,11-126.9,13.4-193.1,3.9
				c-598.3-85.8-1198.6,100.1-1646.1,510.7c-113.5,104-256.8,155.2-399.5,155.2c-160,0-319.1-64.7-435.9-192.2
				c-220.5-240.4-204.1-614,36.3-834.5c710-651,1661.9-945.6,2612.9-809.5C12782.1,8042.1,12790.8,8043,12798.8,8045.1z"/>
			<path id="path2178_12_" inkscape:connector-curvature="0" class="st7" d="M19250.3,14059.5
				c-419.2-1102.4-1358.6-1911.6-2480.3-2152.3c-36.1-540.8-202-1053.5-485.9-1494.4c-176.7-274.4-542.2-353.4-816.9-177
				c-274.4,177-353.4,542.5-176.7,816.9c199.6,310.4,305.4,683.5,305.4,1079.4c0,461.5-146,896.8-411.2,1225.7
				c-205,254.1-164.8,626,89.1,830.9c109.3,88.2,240.4,130.8,370.6,130.8c172.5,0,343.8-75.1,460.6-219.9
				c237.8-295,416.5-638.5,530-1008.5c674.5,187.1,1252.8,710.3,1510.5,1388.4c89.7,236,314.3,381.1,552.4,381.1
				c70,0,140.9-12.5,210-38.7C19213.1,14706,19366.5,14364.9,19250.3,14059.5z"/>
			<path id="path2180_12_" inkscape:connector-curvature="0" class="st9" d="M10001.5,12132.1c0-396,105.5-769,305.4-1079.1
				c177-274.4,97.7-640.3-176.7-816.9s-640.3-97.7-816.9,176.7c-283.9,440.9-449.9,953.7-486.2,1494.4
				c-1121.4,241-2060.8,1049.9-2480.3,2152.6c-115.9,305.1,37.2,646.5,342.3,762.4c69.1,26.2,140.3,38.7,210,38.7
				c238.3,0,462.7-145.1,552.7-381.1c257.7-678.1,835.7-1201.6,1510.5-1388.4c113.5,370,292.3,713.3,530,1008.2
				c116.8,145.1,287.8,220.2,460.6,220.2c130.2,0,261-42.6,370.3-130.8c254.1-205,294.1-577.1,89.1-830.9
				C10147.5,13028.9,10001.5,12593.6,10001.5,12132.1z"/>
		</g>
	</g>
</g>
</svg>
