<?xml version="1.0" encoding="utf-8"?>
<!-- Generator: Adobe Illustrator 25.1.0, SVG Export Plug-In . SVG Version: 6.00 Build 0)  -->
<svg version="1.1"
	 id="Layer_1" xmlns:cc="http://creativecommons.org/ns#" xmlns:dc="http://purl.org/dc/elements/1.1/" xmlns:inkscape="http://www.inkscape.org/namespaces/inkscape" xmlns:rdf="http://www.w3.org/1999/02/22-rdf-syntax-ns#" xmlns:sodipodi="http://sodipodi.sourceforge.net/DTD/sodipodi-0.dtd" xmlns:svg="http://www.w3.org/2000/svg"
	 xmlns="http://www.w3.org/2000/svg" xmlns:xlink="http://www.w3.org/1999/xlink" x="0px" y="0px" viewBox="0 0 300 300"
	 style="enable-background:new 0 0 300 300;" xml:space="preserve">
<style type="text/css">
	.st0{fill:#231F20;}
	.st1{fill:#383B42;}
	.st2{fill:#556080;}
	.st3{fill:#547580;}
	.st4{fill:#2F4456;}
	.st5{fill:#8697CB;}
	.st6{fill:#91ACB5;}
</style>
<g>
	<path class="st0" d="M295,150.2c0,42.6-18.3,80.9-47.6,107.4c-18.8,17.1-42.1,29.3-67.9,34.6c-9.5,2-19.4,3-29.5,3
		c-80.1,0-145-64.9-145-145s64.9-145,145-145S295,70.1,295,150.2z"/>
	<ellipse class="st1" cx="157.3" cy="246" rx="85.6" ry="11.6"/>
	<g>
		<path class="st2" d="M140.1,176.4l45.1,6.2c3.2,0.4,6,2.1,7.9,4.6c1.9,2.6,2.6,5.8,2,9l-7.3,37.6h5.9c2.3,0,4.4,1,5.9,2.7
			s2.1,4,1.7,6.2c-0.8,3.8-4.1,6.4-8,6.4h-15.1c-2.3,0-4.4-1-5.9-2.8s-2-4.1-1.6-6.3l6-31.6c0.4-2.2-0.2-4.6-1.6-6.3
			c-1.5-1.8-3.6-2.8-5.9-2.8h-32.8L140.1,176.4z"/>
		<path class="st3" d="M239.6,80.8c0,17.6-8.7,34.1-23.2,44.1c-5.4,3.8-11.5,6.5-17.9,8c-12.3,2.9-25.3,1.4-36.6-4.3
			c-1.3-0.7-2.6-1.4-3.8-2.1c-22-13.5-31.3-40.8-22-64.9s34.4-38.2,59.8-33.5S239.6,54.9,239.6,80.8z"/>
		<path class="st4" d="M239.6,80.8c0,17.6-8.7,34.1-23.2,44.1c-5.4,3.8-11.5,6.5-17.9,8c-12.3,2.9-25.3,1.4-36.6-4.3
			c-1.2-0.6-2.4-1.3-3.6-2c1.2,0.1,2.4-0.3,3.6,0.1c31.8,12.2,85.1-19.4,73.9-65.7C238.3,67.1,239.6,73.8,239.6,80.8z"/>
		<g>
			<path class="st5" d="M171.5,128.2l7.5,5.7c-6-0.8-11.8-2.6-17.1-5.3C164.6,126.2,168.6,126.1,171.5,128.2z"/>
			<path class="st5" d="M198.5,132.9l2.2-5.8l-6.2-12.3c-1.9-3.8-0.3-8.4,3.4-10.3c3.8-1.9,8.4-0.3,10.3,3.4l7.7,15.3
				c0.3,0.5,0.5,1,0.6,1.6C211,128.6,204.9,131.3,198.5,132.9z"/>
			<path class="st5" d="M216.1,129.3L204.7,160c-0.8,2.3-2.7,4-5,4.7c-0.7,0.2-1.4,0.3-2.1,0.3c-1.7,0-3.3-0.5-4.6-1.5l-11.9-9
				c-5.6,4.4-11.2,8.8-16.8,13.3c-7.3,5.6-14.1,11.8-20.2,18.6c-3.2,3.2-4.6,7.8-3.7,12.3l0.2,0.7l10.6,39.1
				c0.2,0.6,0.4,1.2,0.5,1.8l-9.8,8.6l-53.4-13.3l-1.9,7.5c-0.9,3.9-4.6,6.5-8.6,6.1c-2.1-0.3-4.1-1.5-5.3-3.3
				c-1.2-1.8-1.6-4-1.1-6.1l4.7-19.1c0.5-2,2.6-3.3,4.6-2.8l39.5,9.9c1.5,0.4,3-0.2,4-1.4c0.9-1.2,1.1-2.8,0.3-4.2
				c-2.3-4.2-4.6-8.5-7-12.7c-2.4-3.9-4.5-8.1-6.2-12.4c-1.4-5.2-0.5-10.7,2.4-15.3c4.2-7.3,9.2-14.2,13.8-21.2
				c4.9-7.3,9.5-14.8,14.2-22.3c1.1-1.7,2.2-3.4,3.3-5.1c2.9-4.3,7.7-6.8,12.8-6.7c1.2,0.8,2.5,1.5,3.8,2.1
				c5.4,2.7,11.2,4.5,17.1,5.3l14.9,11.2l4.6-12.2c6.4-1.5,12.5-4.2,17.9-8C216.8,126.3,216.7,127.9,216.1,129.3z"/>
			<path class="st5" d="M151.6,241.6c0,0.4,0,0.7-0.1,1.1c0,0.2-0.1,0.4-0.2,0.6v0.1c0,0.1-0.1,0.2-0.1,0.3
				c-0.1,0.2-0.2,0.5-0.3,0.7c-0.1,0.3-0.2,0.6-0.4,0.8c0,0.1-0.1,0.2-0.2,0.2c-0.2,0.3-0.4,0.6-0.6,0.9c-0.2,0.2-0.3,0.4-0.5,0.6
				c-0.2,0.1-0.3,0.3-0.5,0.4c-0.3,0.3-0.7,0.5-1.1,0.8c-0.2,0.1-0.3,0.2-0.5,0.3c-0.1,0.1-0.2,0.1-0.3,0.2c-0.1,0-0.1,0.1-0.2,0.1
				c-0.3,0.2-0.7,0.3-1.1,0.3c-0.2,0.1-0.4,0.1-0.5,0.1c-0.4,0.1-0.8,0.1-1.2,0.1c-0.6,0-1.2-0.1-1.8-0.2l-0.4-0.1l9.8-8.6
				C151.6,240.6,151.6,241.1,151.6,241.6z"/>
		</g>
		<path class="st6" d="M148.2,104.1c-4.9-8.9-7-23.1-3.2-35.3c4.6-14.6,17-27.3,33.4-36.7c1.3-0.7,0.3-2.7-1-2.1
			c-0.1,0-0.1,0.1-0.2,0.1c-19.1,4.1-33.4,15.9-39.9,35.5c-2.5,7.6-1.8,18.3-1.2,22.5c1.1,7.5,4,13.8,10.2,17.2
			C147.5,106.1,148.8,105.3,148.2,104.1z"/>
	</g>
</g>
</svg>
