<?xml version="1.0" encoding="utf-8"?>
<!-- Generator: Adobe Illustrator 25.1.0, SVG Export Plug-In . SVG Version: 6.00 Build 0)  -->
<svg version="1.1"
	 id="Layer_1" xmlns:cc="http://creativecommons.org/ns#" xmlns:dc="http://purl.org/dc/elements/1.1/" xmlns:inkscape="http://www.inkscape.org/namespaces/inkscape" xmlns:rdf="http://www.w3.org/1999/02/22-rdf-syntax-ns#" xmlns:sodipodi="http://sodipodi.sourceforge.net/DTD/sodipodi-0.dtd" xmlns:svg="http://www.w3.org/2000/svg"
	 xmlns="http://www.w3.org/2000/svg" xmlns:xlink="http://www.w3.org/1999/xlink" x="0px" y="0px" viewBox="0 0 300 300"
	 style="enable-background:new 0 0 300 300;" xml:space="preserve">
<style type="text/css">
	.st0{fill:#5425A0;}
	.st1{fill:#3A3A3A;}
	.st2{fill:#C7C8CA;}
	.st3{fill:#FFCB00;}
	.st4{fill:#F39600;}
	.st5{fill:#E0AA68;}
	.st6{fill:#B57A4E;}
	.st7{fill:#9B5729;}
	.st8{fill:#00A9FF;}
	.st9{fill:#5884CC;}
	.st10{fill:#A7A9AC;}
	.st11{fill:#F8D5AB;}
	.st12{fill:#EAC092;}
</style>
<circle id="path1658" class="st0" cx="150" cy="150.2" r="145"/>
<path id="path1658-0" inkscape:connector-curvature="0" class="st1" d="M267.7,235H32.3c27.2,37.9,71.1,60.3,117.7,60.3
	C196.7,295.3,240.5,272.9,267.7,235L267.7,235z"/>
<g id="g1893" transform="matrix(0.51365676,0,0,0.51365676,11.559334,-2.9443894)">
	<g id="g1787" transform="matrix(0.76887274,0,0,0.76887274,166.25149,61.501791)">
		<g id="g1657" transform="translate(48.577195,23.232572)">
			<path id="path1617" inkscape:connector-curvature="0" class="st2" d="M-9.7,109c2.5-5.3,5.3-10.3,8.4-15h-21.5
				c-5.7,4.4-10.9,9.5-15.4,15H-9.7z"/>
			<path id="path1619" inkscape:connector-curvature="0" class="st2" d="M-14.9,121.8h-32.4c-2.8,4.8-5.3,9.8-7.3,15h35.5
				C-18,131.6-16.6,126.6-14.9,121.8z"/>
			<path id="path1621" inkscape:connector-curvature="0" class="st2" d="M135.2,95.3c1.5,4.3,2.9,8.9,4.1,13.7h27.5
				c-1.5-2.7-3-5.4-4.7-7.9c-1.7-2.5-3.5-4.9-5.3-7.1h-22.1C134.9,94.4,135.1,94.9,135.2,95.3z"/>
			<path id="path1623" inkscape:connector-curvature="0" class="st2" d="M32.3,109c1.2-4.8,2.6-9.4,4.1-13.6
				c0.2-0.5,0.3-0.9,0.5-1.4H14.8c-1.8,2.2-3.6,4.6-5.3,7.1c-1.7,2.5-3.2,5.1-4.7,7.9H32.3z"/>
			<path id="path1625" inkscape:connector-curvature="0" class="st2" d="M-1.1,121.8c-1.9,4.8-3.4,9.8-4.7,15h33
				c0.6-5.2,1.4-10.2,2.3-15H-1.1z"/>
			<path id="path1627" inkscape:connector-curvature="0" class="st2" d="M79.3,94H50.9c-1.8,4.4-3.6,9.4-5.1,15h33.6V94H79.3z"/>
			<path id="path1629" inkscape:connector-curvature="0" class="st2" d="M172.7,121.8h-30.5c0.9,4.8,1.7,9.8,2.3,15h33
				C176.1,131.6,174.5,126.6,172.7,121.8z"/>
			<path id="path1631" inkscape:connector-curvature="0" class="st2" d="M181.3,109h28.5c-4.6-5.5-9.8-10.6-15.4-15H173
				C176.1,98.7,178.9,103.7,181.3,109z"/>
			<path id="path1633" inkscape:connector-curvature="0" class="st2" d="M218.9,121.8h-32.4c1.7,4.8,3.1,9.9,4.3,15h35.4
				C224.2,131.6,221.7,126.6,218.9,121.8z"/>
			<path id="path1635" inkscape:connector-curvature="0" class="st2" d="M128.9,121.8H92.3v15h39.1
				C130.7,131.6,129.9,126.6,128.9,121.8z"/>
			<path id="path1637" inkscape:connector-curvature="0" class="st2" d="M123,99.7c-0.7-2-1.4-3.9-2.2-5.7H92.3v15h33.6
				C125,105.7,124,102.6,123,99.7z"/>
			<path id="path1639" inkscape:connector-curvature="0" class="st2" d="M79.3,121.8H42.7c-0.9,4.7-1.8,9.7-2.4,15h39.1v-15H79.3z"
				/>
			<path id="path1641" inkscape:connector-curvature="0" class="st2" d="M-61.3,403h38.2v15h-38.2V403z"/>
			<path id="path1643" inkscape:connector-curvature="0" class="st2" d="M-61.3,430.8h38.2v15h-38.2V430.8z"/>
			<path id="path1645" inkscape:connector-curvature="0" class="st2" d="M-10.1,403H25v15h-35.1V403z"/>
			<path id="path1647" inkscape:connector-curvature="0" class="st2" d="M-10.1,430.8H25v15h-35.1V430.8z"/>
			<path id="path1649" inkscape:connector-curvature="0" class="st2" d="M146.6,403h35.1v15h-35.1C146.6,418,146.6,403,146.6,403z"
				/>
			<path id="path1651" inkscape:connector-curvature="0" class="st2" d="M146.6,430.8h35.1v15h-35.1
				C146.6,445.8,146.6,430.8,146.6,430.8z"/>
			<path id="path1653" inkscape:connector-curvature="0" class="st2" d="M194.7,403h38.2v15h-38.2V403z"/>
			<path id="path1655" inkscape:connector-curvature="0" class="st2" d="M194.7,430.8h38.2v15h-38.2V430.8z"/>
		</g>
		<path id="path1659" inkscape:connector-curvature="0" class="st3" d="M151.2,54c2.1-3.1,3.3-6.9,3.3-10.9c0-11-9-19.9-20.1-19.9
			s-20.1,8.9-20.1,19.9c0,4,1.2,7.7,3.3,10.9H151.2z"/>
		<path id="path1661" inkscape:connector-curvature="0" class="st4" d="M133.5,54c-2.1-3.1-3.3-6.9-3.3-10.9c0-8.2,5-15.2,12.1-18.2
			c-2.4-1-5.1-1.6-8-1.6c-11.1,0-20.1,8.9-20.1,19.9c0,4,1.2,7.7,3.3,10.9L133.5,54L133.5,54z"/>
		<path id="path1663" inkscape:connector-curvature="0" class="st5" d="M86.9,83.2h95c0.3,0,0.6,0,0.9,0V59.1c0-3.4-2.7-6.1-6.1-6.1
			H92.1c-3.4,0-6.1,2.7-6.1,6.1v24.1C86.3,83.2,86.6,83.2,86.9,83.2z"/>
		<path id="path1665" inkscape:connector-curvature="0" class="st6" d="M86.9,83.2h36.5V59.1c0-3.4,2.7-6.1,6.1-6.1H92.1
			c-3.4,0-6.1,2.7-6.1,6.1v24.1C86.3,83.2,86.6,83.2,86.9,83.2z"/>
		<path id="path1679" inkscape:connector-curvature="0" class="st7" d="M63.6,318.2c-3.3,0-6.5-0.2-9.7-0.7v23.2h15V318
			C67.2,318.1,65.4,318.2,63.6,318.2z"/>
		<path id="path1681" inkscape:connector-curvature="0" class="st7" d="M88.6,313.5c-0.7,0.3-1.3,0.5-2,0.7v26.5h9.8V310
			C94,311.3,91.3,312.5,88.6,313.5z"/>
		<path id="path1683" inkscape:connector-curvature="0" class="st2" d="M38.5,339.7h35.1v15H38.5V339.7z"/>
		<path id="path1685" inkscape:connector-curvature="0" class="st2" d="M-12.7,339.7h38.2v15h-38.2V339.7z"/>
		<path id="path1687" inkscape:connector-curvature="0" class="st2" d="M86.6,339.7h41.3v15H86.6V339.7z"/>
		<path id="path1689" inkscape:connector-curvature="0" class="st4" d="M192.5,225.1l-29.2-13.9c1.6,4.2,2.5,8.8,2.5,13.5
			c0,7.2-2,14-5.6,19.8c0.6,0,1.3-0.1,2-0.4l30.3-14.5C195,228.3,195,226.3,192.5,225.1L192.5,225.1z"/>
		<path id="path1691" inkscape:connector-curvature="0" class="st8" d="M88.3,224.7c0,3.6,0.5,7.1,1.4,10.4l-3.1,1.2v79
			c0.8-0.3,1.6-0.5,2.4-0.8c17.9-6.9,31.4-20.3,38.9-36.5v-92.5c-0.1,0-0.2,0-0.3,0C105.9,185.5,88.3,203,88.3,224.7L88.3,224.7z"/>
		<path id="path1693" inkscape:connector-curvature="0" class="st8" d="M38.5,254.8v59.8c11,4.2,23.1,5.6,35.1,3.9v-77.2L38.5,254.8
			z"/>
		<path id="path1695" inkscape:connector-curvature="0" class="st8" d="M25.5,259.8l-26.3,10.1c-1.6,0.6-2.4,2.4-1.8,3.9
			c5.7,14.7,15.7,26.4,28.1,34.2V259.8z"/>
		<path id="path1697" inkscape:connector-curvature="0" class="st8" d="M140.9,187.8v73.7c15.1-5.4,25.9-19.9,25.9-36.9
			C166.8,207.7,156,193.3,140.9,187.8z"/>
		<path id="path1699" inkscape:connector-curvature="0" class="st9" d="M38.5,286.4v28.2c11,4.2,23.1,5.6,35.1,3.9v-12.4
			C60.4,303,48.1,296.2,38.5,286.4z"/>
		<path id="path1701" inkscape:connector-curvature="0" class="st9" d="M104.4,306.3c-5.9,1.3-11.9,1.8-17.8,1.5v7.5
			c0.8-0.3,1.6-0.5,2.4-0.8C94.6,312.3,99.7,309.6,104.4,306.3z"/>
		<path id="path1703" inkscape:connector-curvature="0" class="st9" d="M25.5,267.8c-0.8-1.7-1.6-3.5-2.3-5.3
			c-0.2-0.6-0.3-1.2-0.1-1.8l-23.9,9.2c-1.6,0.6-2.4,2.4-1.8,3.9c5.7,14.7,15.7,26.4,28.1,34.2C25.5,308,25.5,267.8,25.5,267.8z"/>
		<path id="path1705" inkscape:connector-curvature="0" class="st9" d="M50.6,275.7c-0.5,0.2-0.8,0.8-0.6,1.3
			c3.8,9.8,13.6,15.6,23.6,14.8v-24.9L50.6,275.7z"/>
		<path id="path1707" inkscape:connector-curvature="0" class="st9" d="M93.4,260.3c-0.2-0.5-0.8-0.8-1.3-0.6l-5.5,2.1v24.6
			C94,280.2,97.1,269.8,93.4,260.3z"/>
		
			<path id="path1711" inkscape:connector-curvature="0" sodipodi:nodetypes="csccsccscccsccsscccccscsccscccsccsccsccsssscc" class="st10" d="
			M-11.7,497.8V195.7c0-44.7,30-82.6,70.9-94.5c-4.6,4.4-8.8,9.6-12.7,15.4c-14.2,21.2-22,49.3-22,79.1v302.1h15V195.7
			c0-26.8,6.9-52,19.5-70.8c9.7-14.5,21.7-23.7,34.6-26.6c-3.3,5-6.5,11.6-9.5,20c-7.4,20.8-11.4,48.3-11.4,77.4v302.1h15V195.7
			c0-60.1,17.8-98.5,30-98.5h9.3v400.6h15V217V97.2h9.3c6.2,0,13.8,10.2,19.4,26c6.8,19.2,10.6,45,10.6,72.4v302.1h15v-302
			c0-29.1-4.1-56.6-11.4-77.4c-3-8.4-6.2-14.9-9.5-20c12.9,3,24.9,12.2,34.6,26.6c12.5,18.8,19.5,43.9,19.5,70.8v302.1h15V195.7
			c0-29.8-7.8-57.9-22-79.1c-3.9-5.9-8.2-11-12.7-15.4c40.9,12,70.9,49.8,70.9,94.5v302.1h15V195.7c0-62.6-51-113.5-113.6-113.5h-95
			c-62.6,0-113.6,50.9-113.6,113.5v302.1H-11.7z"/>
		<path id="path1713" inkscape:connector-curvature="0" class="st5" d="M315.8,530.1c0,2.8-2.3,5.1-5.2,5.1H-41.9
			c-2.8,0-5.2-2.3-5.2-5.1v-28.2c0-2.8,2.3-5.2,5.2-5.2h352.5c2.8,0,5.2,2.3,5.2,5.2L315.8,530.1L315.8,530.1z"/>
		<path id="path1715" inkscape:connector-curvature="0" class="st6" d="M0.5,530.1v-28.2c0-2.8,2.3-5.2,5.2-5.2h-47.6
			c-2.8,0-5.2,2.3-5.2,5.2v28.2c0,2.8,2.3,5.2,5.2,5.2H5.6C2.8,535.2,0.5,532.9,0.5,530.1z"/>
		<path id="path1717" inkscape:connector-curvature="0" class="st11" d="M-47,508.6h362.8v15H-47V508.6z"/>
		<path id="path1719" inkscape:connector-curvature="0" class="st5" d="M203.7,393.5c0,3.2-2.6,5.8-5.8,5.8h-127
			c-3.2,0-5.8-2.6-5.8-5.8v-13.3c0-3.2,2.6-5.8,5.8-5.8h127c3.2,0,5.8,2.6,5.8,5.8V393.5z"/>
		<path id="path1721" inkscape:connector-curvature="0" class="st6" d="M100.8,393.5v-13.3c0-3.2,2.6-5.8,5.8-5.8H70.9
			c-3.2,0-5.8,2.6-5.8,5.8v13.3c0,3.2,2.6,5.8,5.8,5.8h35.7C103.4,399.2,100.8,396.6,100.8,393.5z"/>
		<path id="path1723" inkscape:connector-curvature="0" class="st12" d="M-47,508.6H0.5v15H-47V508.6z"/>
	</g>
</g>
</svg>
