<?xml version="1.0" encoding="utf-8"?>
<!-- Generator: Adobe Illustrator 25.1.0, SVG Export Plug-In . SVG Version: 6.00 Build 0)  -->
<svg version="1.1"
	 id="Layer_1" xmlns:cc="http://creativecommons.org/ns#" xmlns:dc="http://purl.org/dc/elements/1.1/" xmlns:inkscape="http://www.inkscape.org/namespaces/inkscape" xmlns:rdf="http://www.w3.org/1999/02/22-rdf-syntax-ns#" xmlns:sodipodi="http://sodipodi.sourceforge.net/DTD/sodipodi-0.dtd" xmlns:svg="http://www.w3.org/2000/svg"
	 xmlns="http://www.w3.org/2000/svg" xmlns:xlink="http://www.w3.org/1999/xlink" x="0px" y="0px" viewBox="0 0 300 300"
	 style="enable-background:new 0 0 300 300;" xml:space="preserve">
<style type="text/css">
	.st0{fill:#0071BC;}
	.st1{fill:#FF5600;}
	.st2{fill:#FF1200;}
	.st3{fill:#FFB22A;}
	.st4{fill:#F09B00;}
	.st5{fill:#FFD18B;}
	.st6{fill:#525E63;}
	.st7{fill:#414C51;}
	.st8{fill:#D66823;}
	.st9{fill:#9A4916;}
</style>
<path class="st0" d="M295,150c0,42.6-18.3,80.9-47.6,107.4c-18.8,17.1-42.1,29.3-67.9,34.6c-9.5,2-19.4,3-29.5,3
	C69.9,295,5,230.1,5,150S69.9,5,150,5S295,69.9,295,150z"/>
<g>
	<g>
		<path class="st1" d="M245.5,120.2c-2.1,2.5-4.6,2-8.1,2c4.8,12.2,11.4,35.9,2.1,57.6c-1.1,2.5-3.7,3.9-6.3,3.3l-6.5-1.3
			c-0.9,10.3-5,29-22.4,39.4c-1.6,0.9-3.5,1.1-5.2,0.3l-6.7-3c-8.5,13.3-25.6,22.4-40.4,27.9c-1.3,0.5-2.7,0.5-3.9,0
			c-14.9-5.5-31.9-14.6-40.4-27.9l-6.7,3c-1.7,0.7-3.6,0.6-5.2-0.3c-17.4-10.4-21.5-29.1-22.4-39.4l-6.5,1.3
			c-2.6,0.5-5.3-0.9-6.3-3.3c-9.3-21.7-2.7-45.3,2.1-57.6c-3.5,0-6,0.4-8.1-2c-1.1-1.3-1.5-3-1.2-4.6c3.2-18.4,21.1-32,32.1-38.8
			l0,0c-3.1-2.1-3.4-6.6-0.6-9c16.9-14.9,34.6-15.7,46.5-13.9c8.4,1.3,15.1,4.2,18.8,6h0.1h0.1c3.7-1.9,10.4-4.7,18.8-6
			c11.9-1.9,29.6-1,46.5,13.9c2.6,2.3,2.8,6.7-0.7,9c11,6.7,28.9,20.3,32.1,38.8C247.1,117.2,246.6,118.9,245.5,120.2L245.5,120.2z"
			/>
	</g>
	<path class="st2" d="M245.5,120.2c-2.1,2.5-4.6,2-8.1,2c4.8,12.2,11.4,35.9,2.1,57.6c-1.1,2.5-3.7,3.9-6.3,3.3l-6.5-1.3
		c-0.9,10.3-5,29-22.4,39.4c-1.6,0.9-3.5,1.1-5.2,0.3l-6.7-3c-8.5,13.3-25.6,22.4-40.4,27.9c-0.7,0.2-1.4,0.4-2.1,0.4V59.9h0.1h0.1
		c3.7-1.9,10.4-4.7,18.8-6c11.9-1.9,29.6-1,46.5,13.9c2.6,2.3,2.8,6.7-0.7,9c11,6.7,28.9,20.3,32.1,38.8
		C247.1,117.2,246.6,118.9,245.5,120.2L245.5,120.2z"/>
	<g>
		<path class="st3" d="M125,108c-5.4,3.6-9.3,10-11.4,15.7c-1.3,3.6-5.8,4.9-8.8,2.6l-7.6-5.8c-12.9-9.8-6.1-30.8,10.4-30.8
			c7,0,10.4,3.5,17.7,9.1C128.4,101.1,128.2,105.8,125,108L125,108z"/>
	</g>
	<g>
		<path class="st4" d="M202.8,120.4l-7.6,5.8c-3.1,2.4-7.6,0.9-8.8-2.6c-2.8-7.3-6.6-12.5-11.4-15.7c-3.3-2.2-3.4-6.9-0.3-9.2
			c7.3-5.6,10.6-9.1,17.7-9.1c5.4,0,10.4,2.5,13.6,6.8C211.8,104,210.3,114.7,202.8,120.4z"/>
	</g>
	<g>
		<path class="st5" d="M196.8,151.1c-3,9-7.7,16.2-10.8,21c-1.8,2.7-2.1,3.2-2.1,4.2c0,17-12.5,30.8-28.2,33.5
			c-1.9,0.3-5.7-3.9-5.7-3.9s-3.8,4.2-5.7,3.9c-16-2.7-28.2-16.7-28.2-33.4c0-1-0.4-1.5-2.1-4.2c-3.1-4.8-7.8-12.1-10.8-21
			c-4-11.8-3.7-22.1-0.1-31.6c9.1-23.3,27.9-30.7,47-24.4h0.1c4.6-1.5,15-3.9,25.7,0.5c9.4,3.9,16.6,11.9,21.2,24
			C200.7,129.2,200.6,139.8,196.8,151.1L196.8,151.1z"/>
	</g>
	<path class="st3" d="M196.8,151.1c-3,9-7.7,16.2-10.8,21c-1.8,2.7-2.1,3.2-2.1,4.2c0,17-12.5,30.8-28.2,33.5
		c-1.9,0.3-5.7-3.9-5.7-3.9V95.1h0.1c4.6-1.5,15-3.9,25.7,0.5c9.4,3.9,16.6,11.9,21.2,24C200.7,129.2,200.6,139.8,196.8,151.1
		L196.8,151.1z"/>
	<g>
		<circle class="st6" cx="129.3" cy="140.5" r="5.7"/>
	</g>
	<g>
		<circle class="st7" cx="170.5" cy="140.5" r="5.7"/>
	</g>
	<g>
		<path class="st8" d="M161.6,177c-1.7,1.7-3.8,3-6,3.8v28.9c-1.9,0.3-3.8,0.5-5.7,0.5s-3.8-0.2-5.7-0.5v-28.9
			c-2.2-0.8-4.3-2.1-6-3.8c-2.2-2.2-2.2-5.8,0-8s5.8-2.2,8,0c1,1,2.3,1.5,3.6,1.5c1.4,0,2.7-0.6,3.6-1.5c2.2-2.2,5.8-2.2,8,0
			C163.8,171.2,163.8,174.8,161.6,177z"/>
	</g>
	<path class="st9" d="M161.6,177c-1.7,1.7-3.8,3-6,3.8v28.9c-1.9,0.3-3.8,0.5-5.7,0.5v-39.8c1.4,0,2.7-0.6,3.6-1.5
		c2.2-2.2,5.8-2.2,8,0C163.8,171.2,163.8,174.8,161.6,177L161.6,177z"/>
</g>
</svg>
