<?xml version="1.0" encoding="utf-8"?>
<!-- Generator: Adobe Illustrator 25.1.0, SVG Export Plug-In . SVG Version: 6.00 Build 0)  -->
<svg version="1.1"
	 id="Layer_1" xmlns:cc="http://creativecommons.org/ns#" xmlns:dc="http://purl.org/dc/elements/1.1/" xmlns:inkscape="http://www.inkscape.org/namespaces/inkscape" xmlns:rdf="http://www.w3.org/1999/02/22-rdf-syntax-ns#" xmlns:sodipodi="http://sodipodi.sourceforge.net/DTD/sodipodi-0.dtd" xmlns:svg="http://www.w3.org/2000/svg"
	 xmlns="http://www.w3.org/2000/svg" xmlns:xlink="http://www.w3.org/1999/xlink" x="0px" y="0px" viewBox="0 0 300 300"
	 style="enable-background:new 0 0 300 300;" xml:space="preserve">
<style type="text/css">
	.st0{fill:#534741;}
	.st1{fill:#604D3A;}
	.st2{fill:#EBE7D4;}
	.st3{fill:#B0A690;fill-opacity:0.2;}
	.st4{fill:#81A1B1;}
	.st5{fill:#CFC3C3;}
	.st6{fill:#F2E4E4;}
	.st7{fill:#BAB0B0;}
	.st8{fill:#D8C5C5;}
	.st9{fill:#525E63;}
</style>
<g>
	<path class="st0" d="M295,150.2c0,42.6-18.3,80.9-47.6,107.4c-18.8,17.1-42.1,29.3-67.9,34.6c-9.5,2-19.4,3-29.5,3
		c-80.1,0-145-64.9-145-145C5,144,5.4,138,6.1,132h287.7C294.6,138,295,144,295,150.2z"/>
	<path class="st1" d="M293.9,132H6.1C15.1,60.5,76.1,5.2,150,5.2S284.9,60.5,293.9,132z"/>
	<path class="st2" d="M149,132H53c0-50.3,21.5-91,48-91S149,81.7,149,132z"/>
	<path class="st3" d="M267.5,235.3c-5.9,8.1-12.6,15.6-20.1,22.3c-18.8,17.1-42.1,29.3-67.9,34.6c-9.5,2-19.4,3-29.5,3
		c-10.6,0-21-1.2-31-3.3L53,132h96L267.5,235.3z"/>
	<g>
		<g>
			<g>
				<path class="st4" d="M173.3,263.7c-2.7,0-4.9-2.2-4.9-4.9v-4.7c0-7.3-6-13.3-13.3-13.3h-30.9c-12.8,0-23.2-10.4-23.2-23.2v-3.7
					c0-12.8,10.4-23.2,23.2-23.2c2.7,0,4.9,2.2,4.9,4.9s-2.2,4.9-4.9,4.9c-7.3,0-13.3,6-13.3,13.3v3.7c0,7.3,6,13.3,13.3,13.3h30.9
					c12.8,0,23.2,10.4,23.2,23.2v4.7C178.3,261.5,176.1,263.7,173.3,263.7z"/>
			</g>
		</g>
		<path class="st5" d="M193.9,139.2v31.9l-34.6-30.2c6.1-1.5,12.8-2.3,20.2-2.3C184.4,138.7,189.2,138.8,193.9,139.2z"/>
		<path class="st6" d="M193.9,171.1l33.8,29.5H178v3.9c0,3.3,2.7,5.9,5.9,5.9h5.1c2.7,0,4.9,2.2,4.9,4.9c0,2.7-2.2,4.9-4.9,4.9
			h-45.2c-11.6,0-21.4-8.1-24-19c-0.4-1.8-0.7-3.7-0.7-5.6c0-0.2,0-0.4,0-0.6c0-0.8-0.1-2.1,0-3.8c0.3-7.7,2.5-23.3,13.8-35.6
			c6.7-7.2,15.5-12.2,26.2-14.8L193.9,171.1z"/>
		<circle class="st6" cx="234.6" cy="176" r="4.9"/>
		<path class="st6" d="M266.9,193.9c0.1-0.1,0.2-0.3,0.3-0.4c0,0,0,0.1-0.1,0.2C267.1,193.7,267,193.8,266.9,193.9z"/>
		<path class="st6" d="M268.8,189.7c0.2-0.6,0.3-1.3,0.3-1.9C269,188.4,268.9,189,268.8,189.7z"/>
		<path class="st6" d="M269.2,186v0.2c0-0.2,0-0.5,0-0.8C269.2,185.6,269.2,185.8,269.2,186z"/>
		<path class="st6" d="M269.2,186.6c0-0.1,0-0.3,0-0.4v0.3C269.2,186.5,269.2,186.6,269.2,186.6z"/>
		<path class="st7" d="M269.2,185.4c0,0,0-0.1,0-0.1c0-0.1,0-0.3,0-0.4c0-0.2,0-0.4-0.1-0.6c-0.1-0.5-0.2-1.1-0.3-1.7
			c-0.1-0.3-0.1-0.5-0.2-0.8c-0.1-0.3-0.2-0.5-0.3-0.8c-0.2-0.5-0.4-1.1-0.7-1.6c-4.8-9-11.7-16.8-20.5-23c2.3-3.8,3.5-8.2,3.5-12.8
			c0-13.9-11.3-25.3-25.3-25.3c-12.7,0-23.2,9.3-25,21.5c-0.5-0.1-1-0.1-1.5-0.2c-1-0.1-2-0.2-3-0.3c-0.6-0.1-1.2-0.1-1.8-0.2v31.9
			l33.8,29.5h27c0.4,0,0.8,0,1.2,0c0.2,0,0.4,0,0.6,0c0.1,0,0.3,0,0.4-0.1c0.2,0,0.5-0.1,0.7-0.1c0.2,0,0.4-0.1,0.6-0.1
			c0.2,0,0.3-0.1,0.4-0.1c0.5-0.1,1-0.3,1.5-0.5c0.1,0,0.2-0.1,0.2-0.1c0.2-0.1,0.5-0.2,0.7-0.3c0.2-0.1,0.4-0.2,0.6-0.3
			c0.1,0,0.1-0.1,0.2-0.1c0.2-0.1,0.3-0.2,0.4-0.2c0.3-0.2,0.5-0.3,0.8-0.5c0.2-0.1,0.3-0.2,0.5-0.4c0.4-0.3,0.8-0.6,1.1-1
			c0.2-0.2,0.3-0.3,0.5-0.5c0.2-0.2,0.3-0.3,0.5-0.5c0.2-0.3,0.5-0.6,0.7-0.9c0.2-0.3,0.4-0.6,0.6-0.9c0.1-0.1,0.2-0.3,0.3-0.4
			c0.2-0.4,0.5-0.8,0.7-1.3c0.1-0.2,0.2-0.3,0.2-0.5c0-0.1,0.1-0.1,0.1-0.2c0.1-0.2,0.1-0.3,0.2-0.5c0.2-0.4,0.3-0.9,0.4-1.3
			c0.2-0.6,0.3-1.3,0.3-1.9c0-0.3,0.1-0.6,0.1-1c0,0,0-0.1,0-0.2c0-0.1,0-0.3,0-0.4C269.2,185.9,269.2,185.7,269.2,185.4z
			 M234.6,180.9c-2.7,0-4.9-2.2-4.9-4.9s2.2-4.9,4.9-4.9c2.7,0,4.9,2.2,4.9,4.9S237.3,180.9,234.6,180.9z"/>
		<path class="st8" d="M236.1,215.4c0,2.7-2.2,4.9-4.9,4.9h-8.3c-8.7,0-15.8-7.1-15.8-15.8v-3.9h-13.1v-29.5l33.8,29.5h-10.8v3.9
			c0,3.3,2.7,5.9,5.9,5.9h8.3C233.9,210.5,236.1,212.7,236.1,215.4z"/>
		<circle class="st8" cx="234.6" cy="176" r="4.9"/>
		<circle class="st9" cx="234.6" cy="176" r="4.9"/>
		<path class="st8" d="M189,210.5h-5.1c-3.3,0-5.9-2.7-5.9-5.9v-17.7c0,0,0,0,0-0.1c0-14-11.4-25.4-25.4-25.4
			c-2.7,0-4.9,2.2-4.9,4.9s2.2,4.9,4.9,4.9c8.6,0,15.6,7,15.6,15.6c0,0,0,0,0,0v17.6c0,8.7,7.1,15.8,15.8,15.8h5.1
			c2.7,0,4.9-2.2,4.9-4.9S191.7,210.5,189,210.5L189,210.5z"/>
	</g>
</g>
</svg>
